REM MD5 90c83d4534c78a4f2361e4b7afc2e377
FILE "Silverload (USA).bin" BINARY
  TRACK 01 MODE2/2352
    INDEX 01 00:00:00
  TRACK 02 AUDIO
    INDEX 00 16:54:49
    INDEX 01 16:56:49
  TRACK 03 AUDIO
    INDEX 00 58:57:51
    INDEX 01 58:59:51
  TRACK 04 AUDIO
    INDEX 00 59:30:53
    INDEX 01 59:32:53
REM LEADOUT 62:56:24
